# xmcd
#
# Track frame offsets: 
#        150
#        18864
#        31449
#        44842
#        59299
#        70949
#        84332
#        98707
#        118769
#        136739
#        157984
#        175252
#        191012
#        208462
#        233467
#
# Disc length: 3339 seconds
#
# Revision: 0
# Processed by: cddbd v1.5.2PL0 Copyright (c) Steve Scherf et al.
# Submitted via: ExactAudioCopy v0.95b4
#
DISCID=c90d090f
DTITLE=Eric Clapton - 1995-02-19 - Welcome Back '95
DYEAR=1995
DGENRE=Blues
TTITLE0=Motherless Child
TTITLE1=Malted Milk
TTITLE2=From Four Till Late
TTITLE3=How Long
TTITLE4=Kidman Blues
TTITLE5=County Jail
TTITLE6=I'm Gonna Cut Your Head
TTITLE7=44
TTITLE8=Blues All Day Long
TTITLE9=Standin' Round Crying
TTITLE10=Hoochie Coochie Man
TTITLE11=It Hurts Me Too
TTITLE12=Blues Before Sunrise
TTITLE13=Third Degree
TTITLE14=Reconsider Baby
EXTD=
EXTT0=
EXTT1=
EXTT2=
EXTT3=
EXTT4=
EXTT5=
EXTT6=
EXTT7=
EXTT8=
EXTT9=
EXTT10=
EXTT11=
EXTT12=
EXTT13=
EXTT14=
PLAYORDER=
